<?xml version="1.0" encoding="UTF-8" standalone="no"?>
<!DOCTYPE svg PUBLIC "-//W3C//DTD SVG 1.1//EN"
 "http://www.w3.org/Graphics/SVG/1.1/DTD/svg11.dtd">
<!-- Generated by graphviz version 2.40.1 (20161225.0304)
 -->
<!-- Title: dependencies Pages: 1 -->
<svg width="1136pt" height="211pt"
 viewBox="0.00 0.00 1136.00 211.00" xmlns="http://www.w3.org/2000/svg" xmlns:xlink="http://www.w3.org/1999/xlink">
<g id="graph0" class="graph" transform="scale(1 1) rotate(0) translate(4 207)">
<title>dependencies</title>
<polygon fill="#ffffff" stroke="transparent" points="-4,4 -4,-207 1132,-207 1132,4 -4,4"/>
<text text-anchor="start" x="543.0091" y="-42.4" font-family="sans-serif" font-weight="bold" font-size="14.00" fill="#000000">Legend</text>
<polygon fill="#ffffb3" stroke="transparent" points="330,-10 330,-30 350,-30 350,-10 330,-10"/>
<text text-anchor="start" x="353.629" y="-15.4" font-family="sans-serif" font-size="14.00" fill="#000000"> &#160;Declarations</text>
<polygon fill="#8dd3c7" stroke="transparent" points="443,-10 443,-30 463,-30 463,-10 443,-10"/>
<text text-anchor="start" x="466.7251" y="-15.4" font-family="sans-serif" font-size="14.00" fill="#000000"> &#160;Module</text>
<polygon fill="#80b1d3" stroke="transparent" points="529,-10 529,-30 549,-30 549,-10 529,-10"/>
<text text-anchor="start" x="552.7812" y="-15.4" font-family="sans-serif" font-size="14.00" fill="#000000"> &#160;Bootstrap</text>
<polygon fill="#fdb462" stroke="transparent" points="626,-10 626,-30 646,-30 646,-10 626,-10"/>
<text text-anchor="start" x="649.6732" y="-15.4" font-family="sans-serif" font-size="14.00" fill="#000000"> &#160;Providers</text>
<polygon fill="#fb8072" stroke="transparent" points="722,-10 722,-30 742,-30 742,-10 722,-10"/>
<text text-anchor="start" x="745.7258" y="-15.4" font-family="sans-serif" font-size="14.00" fill="#000000"> &#160;Exports</text>
<g id="clust1" class="cluster">
<title>cluster_DashboardModule</title>
<polygon fill="none" stroke="#000000" stroke-dasharray="1,5" points="8,-70 8,-195 1120,-195 1120,-70 8,-70"/>
</g>
<g id="clust2" class="cluster">
<title>cluster_DashboardModule_declarations</title>
<polygon fill="none" stroke="#000000" points="16,-78 16,-130 1112,-130 1112,-78 16,-78"/>
</g>
<!-- AboutComponent -->
<g id="node1" class="node">
<title>AboutComponent</title>
<polygon fill="#ffffb3" stroke="#000000" points="1104.3301,-122 987.6699,-122 987.6699,-86 1104.3301,-86 1104.3301,-122"/>
<text text-anchor="middle" x="1046" y="-99.8" font-family="Times,serif" font-size="14.00" fill="#000000">AboutComponent</text>
</g>
<!-- DashboardModule -->
<g id="node8" class="node">
<title>DashboardModule</title>
<polygon fill="#8dd3c7" stroke="#000000" points="639.191,-187 636.191,-191 615.191,-191 612.191,-187 518.809,-187 518.809,-151 639.191,-151 639.191,-187"/>
<text text-anchor="middle" x="579" y="-164.8" font-family="Times,serif" font-size="14.00" fill="#000000">DashboardModule</text>
</g>
<!-- AboutComponent&#45;&gt;DashboardModule -->
<g id="edge1" class="edge">
<title>AboutComponent&#45;&gt;DashboardModule</title>
<path fill="none" stroke="#000000" d="M1046,-122.2921C1046,-144.2057 1046,-178 1046,-178 1046,-178 649.096,-178 649.096,-178"/>
<polygon fill="#000000" stroke="#000000" points="649.0961,-174.5001 639.096,-178 649.096,-181.5001 649.0961,-174.5001"/>
</g>
<!-- DashboardComponent -->
<g id="node2" class="node">
<title>DashboardComponent</title>
<polygon fill="#ffffb3" stroke="#000000" points="969.9734,-122 828.0266,-122 828.0266,-86 969.9734,-86 969.9734,-122"/>
<text text-anchor="middle" x="899" y="-99.8" font-family="Times,serif" font-size="14.00" fill="#000000">DashboardComponent</text>
</g>
<!-- DashboardComponent&#45;&gt;DashboardModule -->
<g id="edge2" class="edge">
<title>DashboardComponent&#45;&gt;DashboardModule</title>
<path fill="none" stroke="#000000" d="M899,-122.1061C899,-141.3391 899,-169 899,-169 899,-169 649.1896,-169 649.1896,-169"/>
<polygon fill="#000000" stroke="#000000" points="649.1896,-165.5001 639.1896,-169 649.1895,-172.5001 649.1896,-165.5001"/>
</g>
<!-- MenuTopComponent -->
<g id="node3" class="node">
<title>MenuTopComponent</title>
<polygon fill="#ffffb3" stroke="#000000" points="810.045,-122 673.955,-122 673.955,-86 810.045,-86 810.045,-122"/>
<text text-anchor="middle" x="742" y="-99.8" font-family="Times,serif" font-size="14.00" fill="#000000">MenuTopComponent</text>
</g>
<!-- MenuTopComponent&#45;&gt;DashboardModule -->
<g id="edge3" class="edge">
<title>MenuTopComponent&#45;&gt;DashboardModule</title>
<path fill="none" stroke="#000000" d="M742,-122.027C742,-138.3976 742,-160 742,-160 742,-160 649.2321,-160 649.2321,-160"/>
<polygon fill="#000000" stroke="#000000" points="649.2321,-156.5001 639.2321,-160 649.232,-163.5001 649.2321,-156.5001"/>
</g>
<!-- RegisterItemComponent -->
<g id="node4" class="node">
<title>RegisterItemComponent</title>
<polygon fill="#ffffb3" stroke="#000000" points="655.6414,-122 502.3586,-122 502.3586,-86 655.6414,-86 655.6414,-122"/>
<text text-anchor="middle" x="579" y="-99.8" font-family="Times,serif" font-size="14.00" fill="#000000">RegisterItemComponent</text>
</g>
<!-- RegisterItemComponent&#45;&gt;DashboardModule -->
<g id="edge4" class="edge">
<title>RegisterItemComponent&#45;&gt;DashboardModule</title>
<path fill="none" stroke="#000000" d="M579,-122.1061C579,-122.1061 579,-140.991 579,-140.991"/>
<polygon fill="#000000" stroke="#000000" points="575.5001,-140.9909 579,-150.991 582.5001,-140.991 575.5001,-140.9909"/>
</g>
<!-- RegisterUserComponent -->
<g id="node5" class="node">
<title>RegisterUserComponent</title>
<polygon fill="#ffffb3" stroke="#000000" points="484.4115,-122 329.5885,-122 329.5885,-86 484.4115,-86 484.4115,-122"/>
<text text-anchor="middle" x="407" y="-99.8" font-family="Times,serif" font-size="14.00" fill="#000000">RegisterUserComponent</text>
</g>
<!-- RegisterUserComponent&#45;&gt;DashboardModule -->
<g id="edge5" class="edge">
<title>RegisterUserComponent&#45;&gt;DashboardModule</title>
<path fill="none" stroke="#000000" d="M407,-122.027C407,-138.3976 407,-160 407,-160 407,-160 508.8427,-160 508.8427,-160"/>
<polygon fill="#000000" stroke="#000000" points="508.8428,-163.5001 518.8427,-160 508.8427,-156.5001 508.8428,-163.5001"/>
</g>
<!-- SearchUserComponent -->
<g id="node6" class="node">
<title>SearchUserComponent</title>
<polygon fill="#ffffb3" stroke="#000000" points="311.8459,-122 166.1541,-122 166.1541,-86 311.8459,-86 311.8459,-122"/>
<text text-anchor="middle" x="239" y="-99.8" font-family="Times,serif" font-size="14.00" fill="#000000">SearchUserComponent</text>
</g>
<!-- SearchUserComponent&#45;&gt;DashboardModule -->
<g id="edge6" class="edge">
<title>SearchUserComponent&#45;&gt;DashboardModule</title>
<path fill="none" stroke="#000000" d="M239,-122.1061C239,-141.3391 239,-169 239,-169 239,-169 508.6066,-169 508.6066,-169"/>
<polygon fill="#000000" stroke="#000000" points="508.6066,-172.5001 518.6066,-169 508.6066,-165.5001 508.6066,-172.5001"/>
</g>
<!-- SidebarComponent -->
<g id="node7" class="node">
<title>SidebarComponent</title>
<polygon fill="#ffffb3" stroke="#000000" points="148.0954,-122 23.9046,-122 23.9046,-86 148.0954,-86 148.0954,-122"/>
<text text-anchor="middle" x="86" y="-99.8" font-family="Times,serif" font-size="14.00" fill="#000000">SidebarComponent</text>
</g>
<!-- SidebarComponent&#45;&gt;DashboardModule -->
<g id="edge7" class="edge">
<title>SidebarComponent&#45;&gt;DashboardModule</title>
<path fill="none" stroke="#000000" d="M86,-122.2921C86,-144.2057 86,-178 86,-178 86,-178 508.5485,-178 508.5485,-178"/>
<polygon fill="#000000" stroke="#000000" points="508.5486,-181.5001 518.5485,-178 508.5485,-174.5001 508.5486,-181.5001"/>
</g>
</g>
</svg>
